<?xml version="1.0" encoding="utf-8"?>
<!-- Generator: Adobe Illustrator 16.0.0, SVG Export Plug-In . SVG Version: 6.00 Build 0)  -->
<!DOCTYPE svg PUBLIC "-//W3C//DTD SVG 1.1//EN" "http://www.w3.org/Graphics/SVG/1.1/DTD/svg11.dtd">
<svg version="1.1" id="Layer_1" xmlns="http://www.w3.org/2000/svg" xmlns:xlink="http://www.w3.org/1999/xlink" x="0px" y="0px"
	 width="50px" height="50px" viewBox="0 0 50 50" enable-background="new 0 0 50 50" xml:space="preserve">
<g>
	<path d="M43.07,39.641c0,1.59-1.34,2.93-2.93,2.93L10.76,42.62c-1.59,0-2.88-1.29-2.88-2.88l0.05-29.38c0-1.59,1.34-2.93,2.93-2.93
		h16.1V4.5h-16.1C7.68,4.5,5,7.75,5,10.93v28.81c0,3.18,2.58,5.76,5.76,5.76H39.57c3.18,0,6.43-2.68,6.43-5.859V23.54h-2.93V39.641z
		"/>
	<path d="M44.5,4.5H34.29c-0.83,0-1.47,0.67-1.47,1.46c0,0.8,0.64,1.47,1.47,1.47l6.431-0.05L18.63,28.45
		c-0.59,0.56-0.59,1.46,0,2.021c0.58,0.559,1.53,0.559,2.11,0L43.029,9.22l0.041,6.99c0,0.8,0.64,1.47,1.47,1.47S46,17.01,46,16.21
		V5.93C46,5.13,45.33,4.5,44.5,4.5z"/>
</g>
</svg>
