<?xml version="1.0" encoding="utf-8"?>
<!-- Generator: Adobe Illustrator 16.0.0, SVG Export Plug-In . SVG Version: 6.00 Build 0)  -->
<!DOCTYPE svg PUBLIC "-//W3C//DTD SVG 1.1//EN" "http://www.w3.org/Graphics/SVG/1.1/DTD/svg11.dtd">
<svg version="1.1" id="Layer_1" xmlns="http://www.w3.org/2000/svg" xmlns:xlink="http://www.w3.org/1999/xlink" x="0px" y="0px"
	 width="99px" height="100px" viewBox="0 0 99 100" enable-background="new 0 0 99 100" xml:space="preserve">
<path d="M94.608,24.007c-3.255,1.454-6.729,2.41-10.396,2.864c3.734-2.255,6.599-5.816,7.966-10.047
	c-3.494,2.082-7.381,3.581-11.502,4.405c-3.301-3.537-8.01-5.729-13.217-5.729c-10.006,0-18.123,8.115-18.123,18.145
	c0,1.409,0.173,2.819,0.479,4.146c-15.041-0.761-28.388-7.988-37.33-18.969c-1.563,2.668-2.452,5.795-2.452,9.113
	c0,6.316,3.19,11.852,8.052,15.107c-2.953-0.089-5.752-0.911-8.205-2.259V41c0,8.811,6.25,16.148,14.542,17.818
	c-1.52,0.412-3.125,0.63-4.775,0.63c-1.172,0-2.3-0.108-3.407-0.326c2.3,7.207,8.985,12.459,16.906,12.607
	c-6.186,4.862-13.999,7.769-22.484,7.769c-1.455,0-2.909-0.084-4.319-0.258c8.008,5.143,17.536,8.16,27.758,8.16
	c33.314,0,51.523-27.67,51.523-51.653c0-0.78-0.021-1.561-0.045-2.343C89.116,30.842,92.178,27.653,94.608,24.007z"/>
</svg>
