<?xml version="1.0" encoding="utf-8"?>
<!-- Generator: Adobe Illustrator 16.0.0, SVG Export Plug-In . SVG Version: 6.00 Build 0)  -->
<!DOCTYPE svg PUBLIC "-//W3C//DTD SVG 1.1//EN" "http://www.w3.org/Graphics/SVG/1.1/DTD/svg11.dtd">
<svg version="1.1" id="Layer_1" xmlns="http://www.w3.org/2000/svg" xmlns:xlink="http://www.w3.org/1999/xlink" x="0px" y="0px"
	 width="50px" height="50px" viewBox="0 0 50 50" enable-background="new 0 0 50 50" xml:space="preserve">
<path d="M38.721,9.97c0-3.02-2.462-5.47-5.49-5.47H16.77c-3.03,0-5.49,2.45-5.49,5.47c-9.4,0-8.23,0-8.23,5.46
	c0,4.53,3.68,8.2,8.23,8.2c0.33,0,0.64-0.05,0.96-0.09c1.84,5.36,6.18,10.19,11.39,10.931v8.299h-4.12c-0.76,0-1.37,0.61-1.37,1.36
	c0,0.761,0.61,1.37,1.37,1.37h10.98c0.76,0,1.369-0.609,1.369-1.37c0-0.75-0.609-1.36-1.369-1.36h-4.12v-8.299
	c5.21-0.74,9.55-5.572,11.39-10.931c0.32,0.04,0.631,0.09,0.961,0.09c4.549,0,8.229-3.67,8.229-8.2
	C46.95,9.97,48.12,9.97,38.721,9.97z M11.28,20.9c-3.03,0-5.49-2.45-5.49-5.47s0.06-2.73,5.49-2.73V20.9z M35.98,18.17
	c0,6.04-4.92,13.66-10.98,13.66c-6.06,0-10.98-7.62-10.98-13.66v-8.2c0-1.36,1.43-2.74,2.75-2.74h16.46c1.318,0,2.75,1.34,2.75,2.74
	V18.17z M38.721,20.9v-8.2c5.43,0,5.489-0.29,5.489,2.73S41.75,20.9,38.721,20.9z"/>
</svg>
