<?xml version="1.0" encoding="utf-8"?>
<!-- Generator: Adobe Illustrator 16.0.0, SVG Export Plug-In . SVG Version: 6.00 Build 0)  -->
<!DOCTYPE svg PUBLIC "-//W3C//DTD SVG 1.1//EN" "http://www.w3.org/Graphics/SVG/1.1/DTD/svg11.dtd">
<svg version="1.1" id="Layer_1" xmlns="http://www.w3.org/2000/svg" xmlns:xlink="http://www.w3.org/1999/xlink" x="0px" y="0px"
	 width="50px" height="50px" viewBox="0 0 50 50" enable-background="new 0 0 50 50" xml:space="preserve">
<g>
	<path d="M25.387,20.9c-2.25,0-4.07,1.84-4.07,4.1s1.82,4.1,4.07,4.1c2.25,0,4.07-1.84,4.07-4.1S27.637,20.9,25.387,20.9z
		 M25.387,31.83c-3.74,0-6.78-3.061-6.78-6.83c0-3.77,3.04-6.83,6.78-6.83c3.74,0,6.779,3.06,6.779,6.83
		C32.166,28.77,29.127,31.83,25.387,31.83z M42.496,16.62l-1.35-2.37c-0.381-0.65-1.211-0.88-1.859-0.5l-3.76,2.19
		c-1.91-2.17-4.5-3.73-7.432-4.33V8.6c0-0.75-0.609-1.37-1.351-1.37h-2.719c-0.74,0-1.35,0.62-1.35,1.37v3.01
		c-2.93,0.6-5.52,2.16-7.43,4.33l-3.76-2.19c-0.65-0.38-1.48-0.15-1.86,0.5l-1.35,2.37c-0.38,0.65-0.15,1.49,0.5,1.86l3.78,2.2
		c-0.45,1.36-0.72,2.81-0.72,4.32s0.27,2.96,0.72,4.32l-3.78,2.199c-0.65,0.371-0.88,1.211-0.5,1.859l1.35,2.37
		c0.38,0.649,1.21,0.88,1.86,0.5l3.76-2.188c1.91,2.17,4.5,3.729,7.43,4.33v3.01c0,0.75,0.61,1.369,1.35,1.369h2.719
		c0.739,0,1.351-0.619,1.351-1.369v-3.01c2.932-0.602,5.521-2.16,7.432-4.33l3.76,2.188c0.648,0.38,1.479,0.149,1.859-0.5l1.35-2.37
		c0.381-0.648,0.15-1.488-0.5-1.859l-3.779-2.199c0.449-1.36,0.721-2.812,0.721-4.32s-0.271-2.96-0.721-4.31l3.779-2.21
		C42.646,18.11,42.877,17.27,42.496,16.62z M44.527,20.17l-3.17,1.85c0.18,0.97,0.289,1.96,0.289,2.98c0,1.02-0.109,2.01-0.289,2.98
		l3.17,1.85c1.299,0.76,1.75,2.43,1,3.74L42.816,38.3c-0.75,1.31-2.41,1.761-3.709,1l-3.201-1.87c-1.5,1.291-3.209,2.34-5.1,3.021
		v2.318c0,1.51-1.211,2.73-2.711,2.73h-5.42c-1.5,0-2.71-1.221-2.71-2.73V40.45c-1.89-0.681-3.6-1.729-5.1-3.021l-3.2,1.869
		c-1.3,0.762-2.96,0.311-3.71-1l-2.71-4.729c-0.74-1.312-0.3-2.98,1-3.74l3.17-1.85c-0.18-0.972-0.29-1.961-0.29-2.98
		c0-1.02,0.11-2.01,0.29-2.98l-3.17-1.85c-1.3-0.76-1.74-2.43-1-3.74l2.71-4.73c0.75-1.31,2.41-1.76,3.71-1l3.2,1.87
		c1.5-1.29,3.21-2.34,5.1-3.02V7.23c0-1.51,1.21-2.73,2.71-2.73h5.42c1.5,0,2.711,1.22,2.711,2.73v2.32
		c1.891,0.68,3.6,1.73,5.1,3.02l3.201-1.87c1.299-0.76,2.959-0.31,3.709,1l2.711,4.73C46.277,17.74,45.826,19.41,44.527,20.17z"/>
</g>
</svg>
