<?xml version="1.0" encoding="utf-8"?>
<!-- Generator: Adobe Illustrator 16.0.0, SVG Export Plug-In . SVG Version: 6.00 Build 0)  -->
<!DOCTYPE svg PUBLIC "-//W3C//DTD SVG 1.1//EN" "http://www.w3.org/Graphics/SVG/1.1/DTD/svg11.dtd">
<svg version="1.1" id="Layer_1" xmlns="http://www.w3.org/2000/svg" xmlns:xlink="http://www.w3.org/1999/xlink" x="0px" y="0px"
	 width="50px" height="50px" viewBox="0 0 50 50" enable-background="new 0 0 50 50" xml:space="preserve">
<g>
	<path d="M38.311,7.471C37.939,7.161,37.49,7,37.021,7c-0.11,0-0.229,0.01-0.352,0.03l-17,3c-0.96,0.17-1.65,1-1.65,1.97v2v1v14.17
		C17,28.432,15.69,28,14.221,28c-0.85,0-1.7,0.141-2.52,0.42c-1.9,0.631-3.42,1.9-4.18,3.48c-0.58,1.221-0.66,2.551-0.21,3.75
		c0.76,2.029,2.92,3.35,5.5,3.35c0.85,0,1.7-0.141,2.53-0.42c1.9-0.629,3.42-1.9,4.18-3.48c0.32-0.68,0.47-1.389,0.48-2.1h0.02V17
		c0.11,0,0.23-0.01,0.35-0.03l16.65-2.94v12.14c-1.01-0.739-2.33-1.17-3.791-1.17c-0.85,0-1.699,0.141-2.528,0.42
		c-1.9,0.631-3.421,1.9-4.181,3.48c-0.58,1.221-0.66,2.551-0.211,3.75C27.07,34.68,29.23,36,31.82,36c0.84,0,1.699-0.141,2.52-0.42
		c1.9-0.629,3.422-1.9,4.182-3.48C38.84,31.42,39,30.711,39,30h0.021V12v-1V9C39.021,8.411,38.762,7.851,38.311,7.471z
		 M14.71,36.689c-2.4,0.801-4.88,0.021-5.53-1.738c-0.66-1.762,0.75-3.842,3.14-4.641c2.4-0.791,4.88-0.021,5.53,1.739
		C18.511,33.811,17.101,35.891,14.71,36.689z M36.98,11v1l-17,3v-1v-2l17-3V11z M33.67,33.689c-2.391,0.801-4.869,0.021-5.529-1.738
		c-0.66-1.762,0.75-3.842,3.15-4.641c2.398-0.791,4.869-0.021,5.529,1.739C37.48,30.811,36.07,32.891,33.67,33.689z"/>
</g>
</svg>
