<?xml version="1.0" encoding="utf-8"?>
<!-- Generator: Adobe Illustrator 16.0.0, SVG Export Plug-In . SVG Version: 6.00 Build 0)  -->
<!DOCTYPE svg PUBLIC "-//W3C//DTD SVG 1.1//EN" "http://www.w3.org/Graphics/SVG/1.1/DTD/svg11.dtd">
<svg version="1.1" id="Layer_1" xmlns="http://www.w3.org/2000/svg" xmlns:xlink="http://www.w3.org/1999/xlink" x="0px" y="0px"
	 width="50px" height="50px" viewBox="0 0 50 50" enable-background="new 0 0 50 50" xml:space="preserve">
<g>
	<path d="M33.82,26.92c-0.609,0.609-0.881,1.46-0.74,2.311l1.682,10.08l-8.621-4.66c-0.42-0.221-0.87-0.34-1.33-0.34
		s-0.91,0.119-1.33,0.34l-8.62,4.66l1.681-10.08c0.14-0.851-0.131-1.701-0.74-2.311l-7.25-7.27l9.89-1.48
		c0.91-0.14,1.681-0.71,2.07-1.52l4.3-8.96l4.299,8.96c0.391,0.81,1.16,1.38,2.07,1.52l9.891,1.48L33.82,26.92z M43.67,18.79
		c-0.33-0.95-1.17-1.65-2.189-1.8l-9.891-1.48l-4.299-8.97C26.84,5.6,25.871,5,24.811,5s-2.029,0.6-2.48,1.54l-4.299,8.97
		l-9.891,1.48c-1.02,0.15-1.86,0.85-2.19,1.8c-0.32,0.96-0.08,2.01,0.64,2.73l7.25,7.27l-1.68,10.09
		c-0.18,1.011,0.26,2.03,1.121,2.63C13.75,41.83,14.311,42,14.86,42c0.46,0,0.91-0.109,1.33-0.34L24.81,37l8.62,4.66
		c0.42,0.23,0.87,0.34,1.33,0.34c0.551,0,1.11-0.17,1.579-0.49c0.861-0.6,1.291-1.619,1.132-2.63l-1.689-10.09l7.25-7.27
		C43.75,20.8,43.99,19.75,43.67,18.79z"/>
</g>
</svg>
