<?xml version="1.0" encoding="utf-8"?>
<!-- Generator: Adobe Illustrator 16.0.0, SVG Export Plug-In . SVG Version: 6.00 Build 0)  -->
<!DOCTYPE svg PUBLIC "-//W3C//DTD SVG 1.1//EN" "http://www.w3.org/Graphics/SVG/1.1/DTD/svg11.dtd">
<svg version="1.1" id="Layer_1" xmlns="http://www.w3.org/2000/svg" xmlns:xlink="http://www.w3.org/1999/xlink" x="0px" y="0px"
	 width="50px" height="50px" viewBox="0 0 50 50" enable-background="new 0 0 50 50" xml:space="preserve">
<path d="M42.811,10.37C42.35,10.15,41.75,10,40.939,10H8.06c-0.81,0-1.41,0.15-1.87,0.37C4.33,11.13,3,12.99,3,15.17v20.66
	c0,2.16,1.31,4.01,3.16,4.779C6.61,40.84,7.21,41,8.06,41h32.879c0.851,0,1.461-0.16,1.899-0.391C44.689,39.84,46,37.99,46,35.83
	V15.17C46,12.99,44.67,11.13,42.811,10.37z M8.06,12.58h32.879c0.229,0,0.451,0.05,0.67,0.11c-0.061,0.12-0.18,0.3-0.399,0.54
	L26.18,29.54c-0.9,0.979-2.458,0.979-3.36,0L7.79,13.23c-0.22-0.24-0.34-0.42-0.4-0.54C7.61,12.63,7.83,12.58,8.06,12.58z
	 M5.71,36.779C5.6,36.49,5.53,36.17,5.53,35.83V15.17c0-0.21,0.03-0.4,0.07-0.59c0.11,0.14,0.21,0.28,0.34,0.42l10.87,11.779
	l-10.52,9.4C6.06,36.391,5.87,36.59,5.71,36.779z M40.939,38.42H8.06c-0.12,0-0.24-0.02-0.36-0.04c0.07-0.069,0.15-0.159,0.25-0.25
	l10.59-9.46l2.44,2.641c0.93,1.021,2.18,1.569,3.52,1.569s2.59-0.55,3.52-1.569l2.44-2.641l10.59,9.46
	c0.101,0.091,0.181,0.181,0.25,0.25C41.18,38.4,41.061,38.42,40.939,38.42z M43.471,35.83c0,0.34-0.07,0.66-0.181,0.949
	c-0.16-0.189-0.351-0.389-0.58-0.6l-10.521-9.4L43.061,15c0.129-0.14,0.229-0.28,0.34-0.42c0.039,0.19,0.07,0.38,0.07,0.59V35.83z"
	/>
</svg>
