<?xml version="1.0" encoding="utf-8"?>
<!-- Generator: Adobe Illustrator 16.0.0, SVG Export Plug-In . SVG Version: 6.00 Build 0)  -->
<!DOCTYPE svg PUBLIC "-//W3C//DTD SVG 1.1//EN" "http://www.w3.org/Graphics/SVG/1.1/DTD/svg11.dtd">
<svg version="1.1" id="Layer_1" xmlns="http://www.w3.org/2000/svg" xmlns:xlink="http://www.w3.org/1999/xlink" x="0px" y="0px"
	 width="50px" height="50px" viewBox="0 0 50 50" enable-background="new 0 0 50 50" xml:space="preserve">
<g>
	<path d="M33.965,10.84h-20.18V7.91c0-0.811,0.65-1.471,1.45-1.471h17.281c0.799,0,1.449,0.66,1.449,1.471V10.84z M33.965,37.68
		h-20.18V12.311h20.18V37.68z M33.965,42.09c0,0.811-0.65,1.471-1.449,1.471H15.235c-0.8,0-1.45-0.66-1.45-1.471V39.15h20.18V42.09z
		 M32.516,3.5H15.235c-2.41,0-4.36,1.971-4.36,4.41v34.18c0,2.439,1.95,4.41,4.36,4.41h17.281c2.409,0,4.359-1.971,4.359-4.41V7.91
		C36.875,5.471,34.925,3.5,32.516,3.5z"/>
	<path d="M26.875,9c0,0.279-0.34,0.5-0.75,0.5h-4.5c-0.42,0-0.75-0.221-0.75-0.5s0.33-0.5,0.75-0.5h4.5
		C26.535,8.5,26.875,8.721,26.875,9z"/>
	<path d="M25.875,41c0,0.279-0.34,0.5-0.75,0.5h-1.5c-0.42,0-0.75-0.221-0.75-0.5s0.33-0.5,0.75-0.5h1.5
		C25.535,40.5,25.875,40.721,25.875,41z"/>
</g>
</svg>
